<svg width="130" height="130" viewBox="0 0 130 130" fill="none" xmlns="http://www.w3.org/2000/svg">
	<path d="M65 129C100.346 129 129 100.346 129 65C129 29.6538 100.346 1 65 1C29.6538 1 1 29.6538 1 65C1 100.346 29.6538 129 65 129Z" stroke="#DBDBDB" stroke-width="2" stroke-linecap="round" stroke-linejoin="round"/>
	<path d="M31.8147 98.1852C31.8147 79.8622 46.6769 65 64.9999 65C83.3229 65 98.1851 79.8622 98.1851 98.1852H31.8147Z" stroke="#DBDBDB" stroke-width="2" stroke-linecap="round" stroke-linejoin="round"/>
	<path d="M64.9998 57.8889C74.1637 57.8889 81.5924 50.4601 81.5924 41.2963C81.5924 32.1325 74.1637 24.7037 64.9998 24.7037C55.836 24.7037 48.4072 32.1325 48.4072 41.2963C48.4072 50.4601 55.836 57.8889 64.9998 57.8889Z" stroke="#DBDBDB" stroke-width="2" stroke-linecap="round" stroke-linejoin="round"/>
	<path d="M112 39C121.389 39 129 31.3888 129 22C129 12.6112 121.389 5 112 5C102.611 5 95 12.6112 95 22C95 31.3888 102.611 39 112 39Z" fill="#F1C676"/>
	<path d="M112 26L112 13" stroke="#231F20" stroke-width="2" stroke-linecap="round" stroke-linejoin="round"/>
	<path d="M112 30L112 29" stroke="#231F20" stroke-width="2" stroke-linecap="round" stroke-linejoin="round"/>
</svg>
