<svg width="130" height="130" viewBox="0 0 130 130" fill="none" xmlns="http://www.w3.org/2000/svg">
	<path d="M65 129C100.346 129 129 100.346 129 65C129 29.6538 100.346 1 65 1C29.6538 1 1 29.6538 1 65C1 100.346 29.6538 129 65 129Z" stroke="#DBDBDB" stroke-width="2" stroke-linecap="round" stroke-linejoin="round"/>
	<path d="M31.8148 98.1852C31.8148 79.8622 46.677 65 65 65C83.323 65 98.1852 79.8622 98.1852 98.1852H31.8148Z" stroke="#DBDBDB" stroke-width="2" stroke-linecap="round" stroke-linejoin="round"/>
	<path d="M64.9999 57.8889C74.1638 57.8889 81.5925 50.4601 81.5925 41.2963C81.5925 32.1325 74.1638 24.7037 64.9999 24.7037C55.8361 24.7037 48.4073 32.1325 48.4073 41.2963C48.4073 50.4601 55.8361 57.8889 64.9999 57.8889Z" stroke="#DBDBDB" stroke-width="2" stroke-linecap="round" stroke-linejoin="round"/>
</svg>
