<svg width="206" height="59" viewBox="0 0 206 59" fill="none" xmlns="http://www.w3.org/2000/svg">
	<path d="M201.791 46.1673C201.791 43.8428 203.678 41.961 206 41.961V33.5484C203.678 33.5484 201.791 31.6666 201.791 29.342C201.791 27.0175 203.678 25.1357 206 25.1357V16.7231C203.678 16.7231 201.791 14.8413 201.791 12.5168C201.791 10.1922 203.678 8.31046 206 8.31046V0H0V8.31897C0 8.31897 0.0512247 8.31897 0.076837 8.31897C2.40756 8.31897 4.29433 10.2007 4.29433 12.5253C4.29433 14.8498 2.40756 16.7316 0.076837 16.7316C0.0512247 16.7316 0.0256123 16.7316 0 16.7316V25.1613C0 25.1613 0.0512247 25.1613 0.076837 25.1613C2.40756 25.1613 4.29433 27.0431 4.29433 29.3676C4.29433 31.6921 2.40756 33.5739 0.076837 33.5739C0.0512247 33.5739 0.0256123 33.5739 0 33.5739V42.0036C0 42.0036 0.0512247 42.0036 0.076837 42.0036C2.40756 42.0036 4.29433 43.8853 4.29433 46.2099C4.29433 48.5344 2.40756 50.4162 0.076837 50.4162C0.0512247 50.4162 0.0256123 50.4162 0 50.4162V58.7437H206V50.4247C203.678 50.4247 201.791 48.543 201.791 46.2184V46.1673Z" fill="#5EBA47"/>
	<path d="M25.4501 10.2093V25.7829L34.2607 10.2093H40.8431L32.0325 25.7829L40.6211 48.4748H34.2607L28.1821 32.4074L25.4501 37.2438V48.4748H19.7642V10.2093H25.4501Z" fill="#333333"/>
	<path d="M47.1949 37.8994V20.7676C47.1949 14.2027 50.5416 9.47699 57.457 9.47699C64.3723 9.47699 67.719 14.2027 67.719 20.7676V37.8994C67.719 44.4644 64.3723 49.1901 57.457 49.1901C50.5416 49.1901 47.1949 44.4644 47.1949 37.8994ZM61.8623 20.7676C61.8623 19.1583 61.8111 15.2075 57.457 15.2075C53.1029 15.2075 53.0516 19.1583 53.0516 20.7676V37.8994C53.0516 39.5087 53.1029 43.4596 57.457 43.4596C61.8111 43.4596 61.8623 39.5087 61.8623 37.8994V20.7676Z" fill="#333333"/>
	<path d="M74.4124 10.2093H95.1498V15.9908L80.9862 42.6848H95.1498V48.4663H74.4124V42.6848L88.576 15.9908H74.4124V10.2093Z" fill="#333333"/>
	<path d="M110.987 48.4663V10.2093H120.745C128.83 10.2093 132.177 15.1564 132.177 21.551C132.177 27.9456 128.83 32.8927 120.745 32.8927H116.784V48.4663H110.987ZM116.784 27.3326H120.745C125.765 27.3326 126.32 23.1603 126.32 21.551C126.32 19.9417 125.765 15.7694 120.745 15.7694H116.784V27.3326Z" fill="#333333"/>
	<path d="M137.974 48.4663V10.2093H147.51C155.595 10.2093 158.942 15.1564 158.942 21.551C158.942 26.166 157.217 30.0573 153.145 31.8369L158.831 48.4663H152.59L147.408 32.8927H143.779V48.4663H137.982H137.974ZM143.771 27.3326H147.51C152.53 27.3326 153.085 23.1603 153.085 21.551C153.085 19.9417 152.53 15.7694 147.51 15.7694H143.771V27.3326Z" fill="#333333"/>
	<path d="M185.928 10.2093V15.8801H178.74V42.7955H185.928V48.4663H165.413V42.7955H172.61V15.8801H165.413V10.2093H185.928Z" fill="#333333"/>
</svg>
