<svg xmlns="http://www.w3.org/2000/svg" width="206.955" height="92" viewBox="0 0 206.955 92">
  <g id="Group_32" data-name="Group 32" transform="translate(-77 -36)">
    <g id="Group_4" data-name="Group 4" transform="translate(77 36)">
      <path id="Path_9" data-name="Path 9" d="M202.724,46.508a4.236,4.236,0,0,1,4.231-4.236V33.8a4.236,4.236,0,0,1,0-8.472V16.849a4.236,4.236,0,0,1,0-8.472V0H0V8.384c.027,0,.051-.008.077-.008a4.237,4.237,0,0,1,0,8.474c-.027,0-.051-.008-.077-.008v8.489c.027,0,.051-.008.077-.008a4.237,4.237,0,1,1,0,8.474C.051,33.8.027,33.79,0,33.79v8.489c.027,0,.051-.008.077-.008a4.237,4.237,0,1,1,0,8.474c-.027,0-.051-.008-.077-.008v8.387H206.955V50.744a4.236,4.236,0,0,1-4.231-4.236" fill="#5ebb47"/>
      <path id="Union_1" data-name="Union 1" d="M-1179.44-27.116V-44.337c0-6.6,3.374-11.35,10.347-11.35s10.346,4.753,10.346,11.35v17.221c0,6.6-3.374,11.349-10.346,11.349S-1179.44-20.519-1179.44-27.116Zm5.9-17.221v17.221c0,1.621.056,5.591,4.443,5.591s4.441-3.97,4.441-5.591V-44.337c0-1.622-.056-5.59-4.441-5.59S-1173.535-45.958-1173.535-44.337Zm112.713,27.84v-5.7h7.255V-49.253h-7.255v-5.7h20.694v5.7h-7.254V-22.2h7.254v5.7Zm-91.293,0V-22.31l14.283-26.832h-14.283v-5.813h20.917v5.813L-1145.48-22.31h14.282V-16.5Zm-40.168,0-6.129-16.154-2.755,4.862V-16.5h-5.736V-54.955h5.736V-39.3l8.884-15.651h6.637l-8.886,15.651,8.661,22.807Zm118.732,0-5.229-15.651h-3.657V-16.5h-5.847V-54.955h9.617c8.153,0,11.526,4.974,11.526,11.4,0,4.64-1.742,8.553-5.847,10.341l5.736,16.714Zm-8.886-21.241h3.769c5.06,0,5.622-4.191,5.622-5.814s-.562-5.813-5.622-5.813h-3.769ZM-1115.385-16.5V-54.955h9.841c8.153,0,11.527,4.974,11.527,11.4s-3.374,11.4-11.527,11.4h-3.992V-16.5Zm5.848-21.241h3.992c5.062,0,5.623-4.191,5.623-5.814s-.562-5.813-5.623-5.813h-3.992Z" transform="translate(1226.837 65.274)" fill="#343434" stroke="rgba(0,0,0,0)" stroke-width="1"/>
      <rect id="Rectangle_3" data-name="Rectangle 3" width="206.955" height="59.123" transform="translate(0 0)" fill="none"/>
    </g>
    <text id="Pri_legim_e_fri_online" data-name="Pri legim e fri online" transform="translate(180 124)" fill="#5ebb47" font-size="16" font-family="Roboto-Bold, Roboto" font-weight="700" letter-spacing="0.01em"><tspan x="-74" y="0">Pri legim e fri online</tspan></text>
  </g>
</svg>
