<svg width="30" height="30" viewBox="0 0 30 30" fill="none" xmlns="http://www.w3.org/2000/svg">
	<path d="M15 29C22.732 29 29 22.732 29 15C29 7.26801 22.732 1 15 1C7.26801 1 1 7.26801 1 15C1 22.732 7.26801 29 15 29Z" stroke="#5FBA47" stroke-width="2" stroke-linecap="round" stroke-linejoin="round"/>
	<path d="M7.74072 22.2593C7.74072 18.2511 10.9918 15 15 15C19.0081 15 22.2592 18.2511 22.2592 22.2593H7.74072Z" stroke="#5FBA47" stroke-width="2" stroke-linecap="round" stroke-linejoin="round"/>
	<path d="M15 13.4444C17.0046 13.4444 18.6296 11.8194 18.6296 9.81481C18.6296 7.81022 17.0046 6.18518 15 6.18518C12.9954 6.18518 11.3704 7.81022 11.3704 9.81481C11.3704 11.8194 12.9954 13.4444 15 13.4444Z" stroke="#5FBA47" stroke-width="2" stroke-linecap="round" stroke-linejoin="round"/>
</svg>
